<?xml version="1.0" encoding="utf-8" ?>
<svg xmlns="http://www.w3.org/2000/svg" xmlns:xlink="http://www.w3.org/1999/xlink" width="512" height="512">
	<path fill="#FC0" d="M175.139 210.939L174.922 209.811C173.539 202.122 173.274 194.117 173.258 186.319C173.122 118.962 205.079 64.6979 263.357 29.815C269.848 25.93 278.011 20.9855 285.625 19.7542C291.187 18.8548 294.539 23.8872 292.056 28.8587C290.076 32.8219 287.218 36.478 284.808 40.1964C271.22 61.1569 263.96 82.9725 262.397 108.117L262.253 119.744C262.273 127.281 262.975 132.972 264.32 140.309C276.022 204.138 333.052 252.948 395.75 263.754C419.658 267.874 450.994 267.597 473.833 259.86L490.843 253.147C493.597 252.066 497.183 250.197 499.914 252.124C506.712 256.921 501.026 265.125 497.775 270.12C473.039 308.133 431.128 337.775 386.195 345.628L377.125 346.942C375.813 347.143 374.024 347.289 372.838 347.88C360.869 336.654 341.522 328.33 325.714 325.139C324.685 255.425 263.98 201.022 194.918 207.285C188.236 207.891 181.668 209.469 175.139 210.939Z"/>
	<path fill="#C6F8F0" d="M175.139 210.939C181.668 209.469 188.236 207.891 194.918 207.285C263.98 201.022 324.685 255.425 325.714 325.139C341.522 328.33 360.869 336.654 372.838 347.88C373.59 349 375.02 350.109 375.963 351.123C401.524 378.599 402.593 424.595 381.631 455.105C370.105 471.882 349.716 484.757 329.761 488.36C320.537 490.026 311.442 489.799 302.123 489.796L94.5149 489.79C89.3619 489.782 84.1332 489.929 79.0156 489.223C17.1382 480.686 -15.0071 413.17 20.2742 360.625L20.7787 359.875C37.6611 336.678 59.8519 328.184 86.6991 324.134C89.3924 273.777 117.585 233.666 164 214.762C167.65 213.275 171.431 212.245 175.139 210.939Z"/>
</svg>
