<?xml version="1.0" encoding="utf-8" ?>
<svg xmlns="http://www.w3.org/2000/svg" xmlns:xlink="http://www.w3.org/1999/xlink" width="512" height="512">
	<path fill="#C6F8F0" d="M0 387.112L0 0L512 0L512 166.006L512 187.99L512 387.591L512 412.679L512 512L0 512L0 414.217L0 387.112ZM0 387.112C0.744224 385.479 0.546951 383.568 1.13694 381.845C3.66728 374.457 5.37866 367.057 8.58674 359.881C22.3595 329.069 50.696 305.925 84.1169 300.587L90.719 299.543C94.0068 298.9 96.5497 287.657 98.1517 283.872C110.707 254.211 129.217 230.272 154.866 211.093L165.698 203.184C167.68 201.777 169.962 200.463 171.76 198.834L172.053 198.56C175.538 195.907 191.434 190.447 195.668 189.109C198.435 188.235 208.844 186.233 209.912 183.516L210.276 183.963C212.171 183.514 214.048 182.598 215.951 182.054L225.796 179.727C229.877 178.741 234.265 179.223 238.437 178.558L254.686 178.453C309.027 178.156 363.27 210.997 389.264 258.591C395.34 266.768 397.396 277.146 402.466 285.976C402.666 289.311 403.088 294.924 405.875 297.217L406.145 297.421C408.685 299.17 412.628 298.709 415.564 298.729C433.805 298.855 443.071 303.558 458.465 311.149C480.834 319.956 500.731 349.82 508.045 371.387C509.756 376.43 510.42 384.296 512 387.591L512 187.99L512 166.006L512 0L0 0L0 387.112ZM0 414.217L0 512L512 512L512 412.679L511.913 412.88C510.913 415.271 510.524 417.821 509.841 420.303C498.582 461.254 466.69 492.177 422.782 494.986C415.033 495.482 408.548 495.583 400.713 495.594L107.828 495.621C99.3744 495.612 90.8816 495.762 82.4863 494.586C46.4286 489.535 18.0136 463.573 5.37386 430.038L1.63097 418.997C1.13766 417.487 0.791861 415.555 0 414.217Z"/>
	<path fill="#FC0" d="M172.053 198.56L164.46 192.87C158.914 188.69 155.965 184.413 155.013 177.523C153.603 167.312 157.584 155.081 169.25 153.651C173.265 153.158 177.545 153.871 181.583 153.97L191.407 154.025C207.758 154.115 210.517 163.06 210.247 178.125C210.218 179.716 209.915 181.633 210.143 183.183L210.197 183.516C208.844 186.233 198.435 188.235 195.668 189.109C191.434 190.447 175.538 195.907 172.053 198.56Z"/>
	<path fill="#FC0" d="M402.466 285.976C403.3 273.669 418.015 255.462 431.551 256.269C442.168 256.903 446.602 266.741 452.018 274.133C457.214 281.225 463.59 286.216 464.767 295.625L464.826 296.072C465.531 301.934 462.234 306.469 458.756 310.789L458.465 311.149C443.071 303.558 433.805 298.855 415.564 298.729C412.628 298.709 408.685 299.17 406.145 297.421L405.875 297.217C403.088 294.924 402.666 289.311 402.466 285.976Z"/>
	<path fill="#FC0" d="M327.473 14.1142C334.808 14.2751 342.036 15.8891 345.949 22.9686L346.5 23.9777C348.638 28.1278 348.561 32.536 348.574 37.0645L348.678 55.0962C348.698 56.4571 348.836 57.9646 348.385 59.271L348.254 59.625C344.655 69.678 336.389 71.4613 326.449 71.4731C313.907 71.0677 305.622 68.3102 304.844 53.7219L304.771 43.1684C304.766 24.709 306.661 15.0514 327.473 14.1142Z"/>
	<path fill="#FC0" d="M214.978 52.7995C216.86 52.6203 218.98 52.5846 220.807 53.1084L221.25 53.2441C227.05 54.9601 231.38 60.2355 235.572 64.2977C246.741 75.1227 257.829 85.4316 245.737 100.758C241.377 106.284 235.952 110.787 228.812 111.642C219.593 112.619 214.319 104.658 208.405 99.0809C199.235 90.4318 187.256 82.2452 196.477 67.9399C200.581 61.5723 207.397 54.4387 214.978 52.7995Z"/>
	<path fill="#FC0" d="M432.63 52.5886C447.235 51.8426 463.738 71.4945 455.954 85C453.828 88.6886 450.143 91.4419 447.21 94.4779C440.788 101.123 435.514 108.951 426.175 111.471L425 111.663C413.961 112.772 401.336 99.9331 400.346 89.564C399.374 79.3878 407.486 72.7182 413.828 65.9773C419.211 60.255 424.287 53.4031 432.63 52.5886Z"/>
	<path fill="#FC0" d="M512 187.99C504.389 197.254 503.287 198.4 491.662 198.433L479.57 198.453C473.859 198.458 467.956 198.766 462.274 198.378C449.987 197.539 446.849 184.735 447.814 174.465C449.293 158.713 456.081 156.291 470.256 156.258L484.801 156.246C498.731 156.251 502.23 154 512 166.006L512 187.99Z"/>
	<path fill="#FC0" d="M238.437 178.558C244.453 134.851 281.895 101.227 326.372 101.236C352.889 101.241 381.398 114.382 397.185 135.825C422.848 170.683 423.027 217.404 395.306 251.59C393.38 253.965 391.521 256.521 389.264 258.591C363.27 210.997 309.027 178.156 254.686 178.453L238.437 178.558Z"/>
</svg>
